<svg width="158" height="24" viewBox="0 0 158 24" fill="none" xmlns="http://www.w3.org/2000/svg">
<path d="M5.57812 0.9375H19.4531V5.5625H5.57812V0.9375ZM0.953125 5.5625H5.57812V10.1875H19.4531V5.5625H24.0781V24H19.4531V14.8125H5.57812V24H0.953125V5.5625ZM27.6644 0.9375H46.1644V5.5625H32.2894V10.1875H46.1644V14.8125H32.2894V24H27.6644V0.9375ZM46.1644 5.5625H50.7894V10.1875H46.1644V5.5625ZM54.3756 0.9375H77.5006V5.5625H59.0006V10.1875H72.8756V14.8125H59.0006V19.4375H77.5006V24H54.3756V0.9375ZM81.0869 0.9375H85.7119V5.5625H81.0869V0.9375ZM99.5869 0.9375H104.212V5.5625H99.5869V0.9375ZM85.7119 5.5625H90.3369V10.1875H85.7119V5.5625ZM94.9619 5.5625H99.5869V10.1875H94.9619V5.5625ZM90.3369 10.1875H94.9619V14.8125H90.3369V10.1875ZM85.7119 14.8125H90.3369V19.4375H85.7119V14.8125ZM94.9619 14.8125H99.5869V19.4375H94.9619V14.8125ZM81.0869 19.4375H85.7119V24H81.0869V19.4375ZM99.5869 19.4375H104.212V24H99.5869V19.4375Z" fill="white"/>
<path d="M107.798 0.9375H126.298V5.5625H112.423V19.4375H126.298V24H107.798V0.9375ZM126.298 5.5625H130.923V19.4375H126.298V5.5625ZM134.509 0.9375H139.134V14.8125H134.509V0.9375ZM153.009 0.9375H157.634V14.8125H153.009V0.9375ZM139.134 14.8125H143.759V19.4375H139.134V14.8125ZM148.384 14.8125H153.009V19.4375H148.384V14.8125ZM143.759 19.4375H148.384V24H143.759V19.4375Z" fill="#6128E3"/>
</svg>
